{
  "accessors": [
    {
      "bufferView": 1,
      "componentType": 5126,
      "count": 2656,
      "max": [
        1.185899019241333,
        1.185899019241333,
        3.7576920986175537
      ],
      "min": [
        -1.185899019241333,
        -1.185899019241333,
        -2.2459919452667236
      ],
      "type": "VEC3"
    },
    {
      "bufferView": 1,
      "byteOffset": 31872,
      "componentType": 5126,
      "count": 2656,
      "max": [
        0.9997795224189758,
        0.9997795224189758,
        0.9999656677246094
      ],
      "min": [
        -0.9997795224189758,
        -0.9997795224189758,
        -0.9792197346687317
      ],
      "type": "VEC3"
    },
    {
      "bufferView": 0,
      "componentType": 5125,
      "count": 15744,
      "type": "SCALAR"
    }
  ],
  "asset": {
    "extras": {
      "author": "cleisonrodrigues (https://sketchfab.com/cleisonctga)",
      "license": "CC-BY-4.0 (http://creativecommons.org/licenses/by/4.0/)",
      "source": "https://sketchfab.com/3d-models/king-chess-d665715c07384c14bc011f4b77190728",
      "title": "King Chess."
    },
    "generator": "Sketchfab-12.68.0",
    "version": "2.0"
  },
  "bufferViews": [
    {
      "buffer": 0,
      "byteLength": 62976,
      "name": "floatBufferViews",
      "target": 34963
    },
    {
      "buffer": 0,
      "byteLength": 63744,
      "byteOffset": 62976,
      "byteStride": 12,
      "name": "floatBufferViews",
      "target": 34962
    }
  ],
  "buffers": [
    {
      "byteLength": 126720,
      "uri": "scene.bin"
    }
  ],
  "materials": [
    {
      "doubleSided": true,
      "name": "Material",
      "pbrMetallicRoughness": {
        "baseColorFactor": [
          0.0,
          0.0,
          0.0,
          1.0
        ],
        "metallicFactor": 0.0,
        "roughnessFactor": 0.6
      }
    }
  ],
  "meshes": [
    {
      "name": "Object_0",
      "primitives": [
        {
          "attributes": {
            "NORMAL": 1,
            "POSITION": 0
          },
          "indices": 2,
          "material": 0,
          "mode": 4
        }
      ]
    }
  ],
  "nodes": [
    {
      "children": [
        1
      ],
      "matrix": [
        1.0,
        0.0,
        0.0,
        0.0,
        0.0,
        2.220446049250313e-16,
        -1.0,
        0.0,
        0.0,
        1.0,
        2.220446049250313e-16,
        0.0,
        0.0,
        0.0,
        0.0,
        1.0
      ],
      "name": "Sketchfab_model"
    },
    {
      "children": [
        2
      ],
      "name": "480a18ca4161452cb751967fc89e60ae.obj.cleaner.materialmerger.gles"
    },
    {
      "mesh": 0,
      "name": "Object_2"
    }
  ],
  "scene": 0,
  "scenes": [
    {
      "name": "Sketchfab_Scene",
      "nodes": [
        0
      ]
    }
  ]
}
